<?xml version="1.0" encoding="utf-8"?>
<svg xmlns="http://www.w3.org/2000/svg" style="margin: auto; background: none; display: block; shape-rendering: auto;" width="280" height="90" preserveAspectRatio="xMidYMid">
<style type="text/css">
  text {
    text-anchor: middle; font-size: 51px; opacity: 0;
  }
</style>
<g style="transform-origin: 140px 45px; transform: scale(0.6375);">
<g transform="translate(140,45)">
  <g transform="translate(0,0)"><g class="path" style="transform: scale(0.91); transform-origin: -88.96px 9.15546px; animation: 3.7037s linear -2.03704s infinite normal forwards running breath-ea93abc8-3267-4f72-9d93-01118ba7e858;"><path d="M31.76-47.04L31.76-47.04L31.76-47.04Q24.80-47.04 20.40-42.48L20.40-42.48L20.40-42.48Q16-37.92 16-30.72L16-30.72L14.32-30.72L14.32-30.72Q14.32-38.64 19.20-43.68L19.20-43.68L19.20-43.68Q24.08-48.72 31.76-48.72L31.76-48.72L31.76-48.72Q34.56-48.72 37.12-48.08L37.12-48.08L37.12-48.08Q39.68-47.44 40.92-46.80L40.92-46.80L40.92-46.80Q42.16-46.16 44.84-44.68L44.84-44.68L44.84-44.68Q47.52-43.20 49.20-42.44L49.20-42.44L49.20-42.44Q50.88-41.68 54.52-40.84L54.52-40.84L54.52-40.84Q58.16-40 62.56-40L62.56-40L62.56-38.32L62.56-38.32Q60-38.32 57.84-38.56L57.84-38.56L57.84-38.56Q57.20-37.92 56.24-36.60L56.24-36.60L56.24-36.60Q55.28-35.28 52.96-30.20L52.96-30.20L52.96-30.20Q50.64-25.12 48.48-18.24L48.48-18.24L56.96-18.24L56.80-16.80L48.08-16.80L48.08-16.80Q46.72-12.40 45.64-7.80L45.64-7.80L45.64-7.80Q44.56-3.20 42.88 1.16L42.88 1.16L42.88 1.16Q41.20 5.52 38.40 9.76L38.40 9.76L38.40 9.76Q32.56 18.32 20.72 18.32L20.72 18.32L20.72 18.32Q11.36 18.32 6.24 12.28L6.24 12.28L6.24 12.28Q1.12 6.24 1.12-1.20L1.12-1.20L1.12-1.20Q1.12-2.16 1.20-3.20L1.20-3.20L3.04-3.20L3.04-3.20Q2.96-2.24 2.96-1.36L2.96-1.36L2.96-1.36Q2.96 5.92 7.72 11.28L7.72 11.28L7.72 11.28Q12.48 16.64 20.72 16.64L20.72 16.64L20.72 16.64Q28.24 16.64 32.32 5.60L32.32 5.60L32.32 5.60Q34.72-0.96 36.28-7.92L36.28-7.92L36.28-7.92Q37.84-14.88 38.40-16.80L38.40-16.80L29.60-16.80L29.76-18.24L38.72-18.24L38.72-18.24Q41.52-28.88 44.24-33.96L44.24-33.96L44.24-33.96Q46.96-39.04 50.56-40.08L50.56-40.08L50.56-40.08Q47.76-41.04 44.60-42.88L44.60-42.88L44.60-42.88Q41.44-44.72 40.24-45.28L40.24-45.28L40.24-45.28Q36.48-47.04 31.76-47.04" fill="#000000" stroke="none" stroke-width="none" transform="translate(-120.79998779296875,24.355465545654297)" style="fill: rgb(0, 0, 0);"></path></g><g class="path" style="transform: scale(0.91); transform-origin: -52.12px 19.1955px; animation: 3.7037s linear -1.62963s infinite normal forwards running breath-ea93abc8-3267-4f72-9d93-01118ba7e858;"><path d="M64.56-1.04L64.56-1.04L64.56-1.04Q62.88-2.72 62.88-5.12L62.88-5.12L62.88-5.12Q62.88-7.52 64.56-9.24L64.56-9.24L64.56-9.24Q66.24-10.96 68.64-10.96L68.64-10.96L68.64-10.96Q71.04-10.96 72.76-9.24L72.76-9.24L72.76-9.24Q74.48-7.52 74.48-5.12L74.48-5.12L74.48-5.12Q74.48-2.72 72.76-1.04L72.76-1.04L72.76-1.04Q71.04 0.64 68.64 0.64L68.64 0.64L68.64 0.64Q66.24 0.64 64.56-1.04" fill="#000000" stroke="none" stroke-width="none" transform="translate(-120.79998779296875,24.355465545654297)" style="fill: rgb(4, 242, 255);"></path></g><g class="path" style="transform: scale(0.91); transform-origin: 2.08001px 7.91546px; animation: 3.7037s linear -1.22222s infinite normal forwards running breath-ea93abc8-3267-4f72-9d93-01118ba7e858;"><path d="M98.64 12.24L98.64 12.24L98.64 10.72L98.64 10.72Q103.60 10.48 105.36 8.16L105.36 8.16L105.36 8.16Q107.12 5.84 108.64-2.56L108.64-2.56L116.32-46.80L116.32-46.80Q99.92-45.44 91.00-39.72L91.00-39.72L91.00-39.72Q82.08-34 82.08-24.80L82.08-24.80L82.08-24.80Q82.08-20.64 84.96-17.76L84.96-17.76L84.96-17.76Q86.96-15.84 90.24-14.84L90.24-14.84L90.24-14.84Q93.52-13.84 95.64-13.72L95.64-13.72L95.64-13.72Q97.76-13.60 97.92-13.76L97.92-13.76L97.92-12.08L97.92-12.08Q88.48-12.08 83.92-16.56L83.92-16.56L83.92-16.56Q80.56-19.68 80.56-24.80L80.56-24.80L80.56-24.80Q80.56-36.24 92.52-42.48L92.52-42.48L92.52-42.48Q104.48-48.72 126.32-48.72L126.32-48.72L126.32-48.72Q139.92-48.72 145.64-45.04L145.64-45.04L145.64-45.04Q151.36-41.36 151.36-35L151.36-35L151.36-35Q151.36-28.64 147-24.08L147-24.08L147-24.08Q142.64-19.52 135.52-17.04L135.52-17.04L135.52-17.04Q145.92 4.56 148.88 8.92L148.88 8.92L148.88 8.92Q151.84 13.28 156 13.28L156 13.28L156 13.28Q158.48 13.28 160.44 11.72L160.44 11.72L160.44 11.72Q162.40 10.16 163.20 7.52L163.20 7.52L165.20 7.52L165.20 7.52Q162.64 15.84 152.64 15.84L152.64 15.84L152.64 15.84Q146.32 15.84 142.20 12.84L142.20 12.84L142.20 12.84Q138.08 9.84 135.28 3.76L135.28 3.76L126.64-14.96L126.64-14.96Q123.44-14.64 121.92-14.64L121.92-14.64L121.92-14.64Q121.68-13.44 121.20-10.56L121.20-10.56L121.20-10.56Q120.72-7.68 120.40-6.24L120.40-6.24L120.40-6.24Q118.80 2.40 112.36 7.32L112.36 7.32L112.36 7.32Q105.92 12.24 98.64 12.24zM149.28-34.72L149.28-34.72L149.28-34.72Q149.28-46.96 127.04-47.20L127.04-47.20L122.24-16.40L122.24-16.40Q133.60-16.72 141.44-22.12L141.44-22.12L141.44-22.12Q149.28-27.52 149.28-34.72" fill="#000000" stroke="none" stroke-width="none" transform="translate(-120.79998779296875,24.355465545654297)" style="fill: rgb(0, 0, 0);"></path></g><g class="path" style="transform: scale(0.91); transform-origin: 40.36px 19.1955px; animation: 3.7037s linear -0.814815s infinite normal forwards running breath-ea93abc8-3267-4f72-9d93-01118ba7e858;"><path d="M157.04-1.04L157.04-1.04L157.04-1.04Q155.36-2.72 155.36-5.12L155.36-5.12L155.36-5.12Q155.36-7.52 157.04-9.24L157.04-9.24L157.04-9.24Q158.72-10.96 161.12-10.96L161.12-10.96L161.12-10.96Q163.52-10.96 165.24-9.24L165.24-9.24L165.24-9.24Q166.96-7.52 166.96-5.12L166.96-5.12L166.96-5.12Q166.96-2.72 165.24-1.04L165.24-1.04L165.24-1.04Q163.52 0.64 161.12 0.64L161.12 0.64L161.12 0.64Q158.72 0.64 157.04-1.04" fill="#000000" stroke="none" stroke-width="none" transform="translate(-120.79998779296875,24.355465545654297)" style="fill: rgb(4, 242, 255);"></path></g><g class="path" style="transform: scale(0.91); transform-origin: 82.2px 5.39547px; animation: 3.7037s linear -0.407407s infinite normal forwards running breath-ea93abc8-3267-4f72-9d93-01118ba7e858;"><path d="M194.16 15.52L194.16 15.52L194.16 15.52Q202.56 15.52 207.24 12.08L207.24 12.08L207.24 12.08Q211.92 8.64 211.92 2.96L211.92 2.96L211.92 2.96Q211.92-1.12 209.88-4.24L209.88-4.24L209.88-4.24Q207.84-7.36 204.80-9.40L204.80-9.40L204.80-9.40Q201.76-11.44 198.60-13.44L198.60-13.44L198.60-13.44Q195.44-15.44 192.72-18.48L192.72-18.48L192.72-18.48Q190.00-21.52 189.12-25.36L189.12-25.36L189.12-25.36Q181.84-27.52 179.52-34.40L179.52-34.40L179.52-34.40Q178.64-37.04 178.64-39.92L178.64-39.92L178.64-39.92Q178.64-42.80 179.52-45.92L179.52-45.92L179.52-45.92Q181.36-52.08 185.52-55.20L185.52-55.20L186.40-53.92L186.40-53.92Q182.64-51.20 180.96-45.44L180.96-45.44L180.96-45.44Q180.16-42.56 180.16-39.92L180.16-39.92L180.16-39.92Q180.16-37.28 180.96-34.88L180.96-34.88L180.96-34.88Q182.88-29.04 188.88-27.04L188.88-27.04L188.88-27.04Q188.72-27.92 188.72-29.76L188.72-29.76L188.72-29.76Q188.72-40.24 196.32-46.72L196.32-46.72L196.32-46.72Q203.92-53.20 214.88-53.20L214.88-53.20L214.88-53.20Q222.08-53.20 226.40-49.28L226.40-49.28L226.40-49.28Q230.08-45.84 230.08-40.84L230.08-40.84L230.08-40.84Q230.08-35.84 226.72-32.20L226.72-32.20L226.72-32.20Q223.36-28.56 217.68-28.56L217.68-28.56L217.68-28.56Q214.56-28.56 212.56-29.76L212.56-29.76L212.56-29.76Q208.48-26.64 202.88-25.28L202.88-25.28L202.88-25.28Q204.48-23.76 210.36-19.68L210.36-19.68L210.36-19.68Q216.24-15.60 219.16-11.88L219.16-11.88L219.16-11.88Q222.08-8.16 222.08-3.20L222.08-3.20L222.08-3.20Q222.08 5.92 215.00 11.60L215.00 11.60L215.00 11.60Q207.92 17.28 197.08 17.28L197.08 17.28L197.08 17.28Q186.24 17.28 180.72 12.48L180.72 12.48L180.72 12.48Q175.92 8.40 175.92 2.52L175.92 2.52L175.92 2.52Q175.92-3.36 179.72-7.56L179.72-7.56L179.72-7.56Q183.52-11.76 189.20-11.76L189.20-11.76L189.20-11.76Q194.88-11.76 197.60-9.24L197.60-9.24L197.60-9.24Q200.32-6.72 200.32-3.12L200.32-3.12L200.32-3.12Q200.32 0.48 198.12 3.28L198.12 3.28L198.12 3.28Q195.92 6.08 192.40 6.08L192.40 6.08L192.40 6.08Q188.88 6.08 186.80 3.84L186.80 3.84L186.80 3.84Q184.88 1.92 184.64-0.96L184.64-0.96L184.64-0.96Q184.56-1.76 184.64-1.92L184.64-1.92L186.16-1.84L186.16-1.84Q186.08 0.96 187.92 2.80L187.92 2.80L187.92 2.80Q189.44 4.48 192.36 4.48L192.36 4.48L192.36 4.48Q195.28 4.48 197.04 2.20L197.04 2.20L197.04 2.20Q198.80-0.08 198.80-3.08L198.80-3.08L198.80-3.08Q198.80-6.08 196.72-7.92L196.72-7.92L196.72-7.92Q194.40-10.24 189.28-10.24L189.28-10.24L189.28-10.24Q184.16-10.24 180.80-6.52L180.80-6.52L180.80-6.52Q177.44-2.80 177.44 2.44L177.44 2.44L177.44 2.44Q177.44 7.68 181.76 11.36L181.76 11.36L181.76 11.36Q184.32 13.60 187.00 14.56L187.00 14.56L187.00 14.56Q189.68 15.52 194.16 15.52zM207.76-39.52L207.76-39.52L207.76-39.52Q207.76-43.04 209.56-45.36L209.56-45.36L209.56-45.36Q211.36-47.68 214.48-47.68L214.48-47.68L214.48-47.68Q219.84-47.68 219.84-41.80L219.84-41.80L219.84-41.80Q219.84-35.92 214.00-30.72L214.00-30.72L214.00-30.72Q215.76-29.92 217.68-29.92L217.68-29.92L217.68-29.92Q222.64-29.92 225.60-33.16L225.60-33.16L225.60-33.16Q228.56-36.40 228.56-40.76L228.56-40.76L228.56-40.76Q228.56-45.12 225.36-48.16L225.36-48.16L225.36-48.16Q221.44-51.68 215.04-51.68L215.04-51.68L215.04-51.68Q208.64-51.68 204.16-48.56L204.16-48.56L204.16-48.56Q197.20-43.60 197.20-35.76L197.20-35.76L197.20-35.76Q197.20-29.28 201.52-26.32L201.52-26.32L201.52-26.32Q206.88-27.52 211.44-30.64L211.44-30.64L211.44-30.64Q207.76-33.92 207.76-39.52zM214.40-46.24L214.40-46.24L214.40-46.24Q212.00-46.24 210.68-44.40L210.68-44.40L210.68-44.40Q209.36-42.56 209.36-39.52L209.36-39.52L209.36-39.52Q209.36-34.32 212.64-31.60L212.64-31.60L212.64-31.60Q215.04-33.28 216.64-36.16L216.64-36.16L216.64-36.16Q218.24-39.04 218.24-41.84L218.24-41.84L218.24-41.84Q218.24-46.24 214.40-46.24" fill="#000000" stroke="none" stroke-width="none" transform="translate(-120.79998779296875,24.355465545654297)" style="fill: rgb(0, 0, 0);"></path></g><g class="path" style="transform: scale(0.91); transform-origin: 116.12px 19.1955px; animation: 3.7037s linear 0s infinite normal forwards running breath-ea93abc8-3267-4f72-9d93-01118ba7e858;"><path d="M232.80-1.04L232.80-1.04L232.80-1.04Q231.12-2.72 231.12-5.12L231.12-5.12L231.12-5.12Q231.12-7.52 232.80-9.24L232.80-9.24L232.80-9.24Q234.48-10.96 236.88-10.96L236.88-10.96L236.88-10.96Q239.28-10.96 241.00-9.24L241.00-9.24L241.00-9.24Q242.72-7.52 242.72-5.12L242.72-5.12L242.72-5.12Q242.72-2.72 241.00-1.04L241.00-1.04L241.00-1.04Q239.28 0.64 236.88 0.64L236.88 0.64L236.88 0.64Q234.48 0.64 232.80-1.04" fill="#000000" stroke="none" stroke-width="none" transform="translate(-120.79998779296875,24.355465545654297)" style="fill: rgb(4, 242, 255);"></path></g></g>
</g>
</g>
<style id="breath-ea93abc8-3267-4f72-9d93-01118ba7e858" data-anikit="">@keyframes breath-ea93abc8-3267-4f72-9d93-01118ba7e858
{
  0% {
    animation-timing-function: cubic-bezier(0.9647,0.2413,-0.0705,0.7911);
    transform: scale(0.9099999999999999);
  }
  51% {
    animation-timing-function: cubic-bezier(0.9226,0.2631,-0.0308,0.7628);
    transform: scale(1.02994);
  }
  100% {
    transform: scale(0.9099999999999999);
  }
}</style></svg>